<svg width="512" height="512" viewBox="0 0 512 512" fill="none" xmlns="http://www.w3.org/2000/svg">
<path d="M407.07 377.01C405.21 375.15 402.63 374.08 400 374.08C397.37 374.08 394.79 375.15 392.93 377.01C391.07 378.87 390 381.45 390 384.08C390 386.71 391.07 389.29 392.93 391.15C394.79 393.02 397.37 394.08 400 394.08C402.63 394.08 405.21 393.02 407.07 391.15C408.93 389.29 410 386.71 410 384.08C410 381.45 408.93 378.871 407.07 377.01Z" fill="white"/>
<path d="M472 0.000976562H40C17.944 0.000976562 0 17.945 0 40.001V354.084C0 376.14 17.944 394.084 40 394.084H197V444.281C167.668 447.139 144.667 471.931 144.667 502C144.667 507.523 149.144 512 154.667 512H357.334C362.857 512 367.334 507.523 367.334 502C367.334 471.251 343.279 446.028 313.001 444.128V394.084H359.668C365.191 394.084 369.668 389.607 369.668 384.084C369.668 378.561 365.191 374.084 359.668 374.084H40C28.972 374.084 20 365.112 20 354.084V40.001C20 28.973 28.972 20.001 40 20.001H472C483.028 20.001 492 28.973 492 40.001V354.084C492 365.112 483.028 374.084 472 374.084H434.667C429.144 374.084 424.667 378.561 424.667 384.084C424.667 389.607 429.144 394.084 434.667 394.084H472C494.056 394.084 512 376.14 512 354.084V40.001C512 17.944 494.056 0.000976562 472 0.000976562ZM217 394.084H293V444.001H217V394.084ZM309.333 464.001C326.827 464.001 341.598 475.883 345.999 492.001H166.001C170.401 475.883 185.172 464.001 202.666 464.001H309.333Z" fill="white"/>
<path d="M262.07 345.011C260.21 343.151 257.63 342.081 255 342.081C252.37 342.081 249.79 343.151 247.93 345.011C246.07 346.871 245 349.451 245 352.081C245 354.721 246.07 357.291 247.93 359.151C249.79 361.021 252.37 362.081 255 362.081C257.63 362.081 260.21 361.021 262.07 359.151C263.93 357.291 265 354.721 265 352.081C265 349.451 263.93 346.871 262.07 345.011Z" fill="white"/>
<path d="M146.196 183.314L195.192 134.319C199.098 130.414 199.098 124.082 195.193 120.177C191.288 116.272 184.956 116.272 181.05 120.177L124.984 176.243C121.079 180.148 121.079 186.48 124.984 190.386L181.05 246.452C183.003 248.405 185.562 249.381 188.121 249.381C190.68 249.381 193.24 248.405 195.192 246.452C199.097 242.547 199.097 236.215 195.192 232.309L146.196 183.314Z" fill="white"/>
<path d="M387.015 176.243L330.949 120.177C327.044 116.272 320.712 116.272 316.806 120.177C312.901 124.082 312.901 130.414 316.806 134.32L365.802 183.315L316.806 232.31C312.902 236.215 312.902 242.547 316.807 246.452C318.76 248.405 321.319 249.381 323.878 249.381C326.437 249.381 328.997 248.405 330.949 246.452L387.015 190.386C390.92 186.48 390.92 180.149 387.015 176.243Z" fill="white"/>
<path d="M273.557 121.53C268.223 120.098 262.739 123.267 261.309 128.601L231.371 240.332C229.942 245.667 233.108 251.15 238.442 252.58C239.309 252.812 240.18 252.923 241.037 252.923C245.452 252.923 249.493 249.976 250.69 245.509L280.628 133.778C282.058 128.442 278.892 122.96 273.557 121.53Z" fill="white"/>
<path d="M462 40.084H303C297.477 40.084 293 44.561 293 50.084C293 55.607 297.477 60.084 303 60.084H452V310.084H60V60.084H213.5C219.023 60.084 223.5 55.607 223.5 50.084C223.5 44.561 219.023 40.084 213.5 40.084H50C44.477 40.084 40 44.561 40 50.084V320.084C40 325.607 44.477 330.084 50 330.084H462C467.523 330.084 472 325.607 472 320.084V50.084C472 44.561 467.523 40.084 462 40.084Z" fill="white"/>
<path d="M265.07 43.0111C263.21 41.1511 260.63 40.0811 258 40.0811C255.37 40.0811 252.79 41.1511 250.93 43.0111C249.07 44.8711 248 47.4511 248 50.0811C248 52.7111 249.07 55.2911 250.93 57.1611C252.79 59.0211 255.37 60.0811 258 60.0811C260.63 60.0811 263.21 59.0211 265.07 57.1611C266.93 55.2911 268 52.7211 268 50.0811C268 47.4511 266.93 44.8711 265.07 43.0111Z" fill="white"/>
</svg>
