<svg width="511" height="511" viewBox="0 0 511 511" fill="none" xmlns="http://www.w3.org/2000/svg">
<path d="M470.962 102.751C470.944 102.569 470.913 102.392 470.882 102.214C470.871 102.151 470.865 102.086 470.853 102.023C470.811 101.813 470.757 101.607 470.698 101.404C470.689 101.374 470.684 101.343 470.675 101.313C470.612 101.106 470.537 100.904 470.457 100.705C470.446 100.678 470.438 100.65 470.427 100.624C470.349 100.435 470.259 100.252 470.166 100.072C470.147 100.035 470.132 99.997 470.112 99.96C470.023 99.793 469.923 99.633 469.821 99.474C469.791 99.426 469.764 99.376 469.733 99.329C469.632 99.178 469.52 99.034 469.409 98.891C469.37 98.841 469.336 98.789 469.296 98.74C469.14 98.551 468.976 98.368 468.803 98.195L372.805 2.198C372.632 2.025 372.45 1.86 372.26 1.705C372.211 1.665 372.158 1.631 372.109 1.592C371.966 1.48 371.822 1.369 371.671 1.268C371.624 1.236 371.574 1.21 371.526 1.18C371.367 1.079 371.207 0.979 371.04 0.889C371.004 0.869 370.965 0.854 370.928 0.835C370.747 0.742 370.564 0.652 370.376 0.574C370.349 0.563 370.321 0.555 370.295 0.544C370.096 0.464 369.894 0.389 369.687 0.326C369.657 0.317 369.626 0.311 369.596 0.303C369.393 0.244 369.187 0.189 368.977 0.147C368.914 0.134 368.849 0.129 368.786 0.118C368.608 0.087 368.431 0.056 368.249 0.038C368.001 0.013 367.751 0 367.5 0H143.5C121.72 0 104 17.72 104 39.5V80H71.5C54.131 80 40 94.131 40 111.5V191.5C40 208.869 54.131 223 71.5 223H104V471.5C104 493.28 121.72 511 143.5 511H431.5C453.28 511 471 493.28 471 471.5V103.5C471 103.249 470.987 102.999 470.962 102.751ZM375 25.606L445.394 96H399.5C385.991 96 375 85.009 375 71.5V25.606ZM55 191.5V111.5C55 102.402 62.402 95 71.5 95H303.5C312.598 95 320 102.402 320 111.5V191.5C320 200.598 312.598 208 303.5 208H111.519C111.513 208 111.506 207.999 111.5 207.999C111.494 207.999 111.487 208 111.481 208H71.5C62.402 208 55 200.598 55 191.5ZM431.5 496H143.5C129.991 496 119 485.009 119 471.5V223H303.5C320.869 223 335 208.869 335 191.5V111.5C335 94.131 320.869 80 303.5 80H119V39.5C119 25.991 129.991 15 143.5 15H360V71.5C360 93.28 377.72 111 399.5 111H456V471.5C456 485.009 445.009 496 431.5 496Z" fill="#1762A7" fill-opacity="0.5"/>
<path d="M223 319.5C223 314.813 226.813 311 231.5 311H239.5C243.642 311 247 307.642 247 303.5C247 299.358 243.642 296 239.5 296H231.5C218.542 296 208 306.542 208 319.5V343.5C208 348.187 204.187 352 199.5 352C195.358 352 192 355.358 192 359.5C192 363.642 195.358 367 199.5 367C204.187 367 208 370.813 208 375.5V399.5C208 412.458 218.542 423 231.5 423H239.5C243.642 423 247 419.642 247 415.5C247 411.358 243.642 408 239.5 408H231.5C226.813 408 223 404.187 223 399.5V375.5C223 369.325 220.606 363.698 216.697 359.5C220.606 355.302 223 349.675 223 343.5V319.5Z" fill="#1762A7" fill-opacity="0.5"/>
<path d="M375.5 352C370.813 352 367 348.187 367 343.5V319.5C367 306.542 356.458 296 343.5 296H335.5C331.358 296 328 299.358 328 303.5C328 307.642 331.358 311 335.5 311H343.5C348.187 311 352 314.813 352 319.5V343.5C352 349.675 354.394 355.302 358.303 359.5C354.394 363.698 352 369.325 352 375.5V399.5C352 404.187 348.187 408 343.5 408H335.5C331.358 408 328 411.358 328 415.5C328 419.642 331.358 423 335.5 423H343.5C356.458 423 367 412.458 367 399.5V375.5C367 370.813 370.813 367 375.5 367C379.642 367 383 363.642 383 359.5C383 355.358 379.642 352 375.5 352Z" fill="#1762A7" fill-opacity="0.5"/>
<path d="M255.503 384C253.523 384 251.593 384.8 250.193 386.2C248.803 387.59 248.003 389.53 248.003 391.5C248.003 393.48 248.803 395.41 250.193 396.8C251.593 398.2 253.523 399 255.503 399C257.473 399 259.403 398.2 260.803 396.8C262.203 395.41 263.003 393.48 263.003 391.5C263.003 389.53 262.203 387.59 260.803 386.2C259.403 384.8 257.473 384 255.503 384Z" fill="#1762A7" fill-opacity="0.5"/>
<path d="M287.503 384C285.523 384 283.593 384.8 282.193 386.2C280.803 387.59 280.003 389.53 280.003 391.5C280.003 393.47 280.803 395.41 282.193 396.8C283.593 398.2 285.523 399 287.503 399C289.473 399 291.403 398.2 292.803 396.8C294.203 395.41 295.003 393.48 295.003 391.5C295.003 389.52 294.203 387.59 292.803 386.2C291.403 384.8 289.473 384 287.503 384Z" fill="#1762A7" fill-opacity="0.5"/>
<path d="M319.503 384C317.523 384 315.593 384.8 314.193 386.2C312.803 387.59 312.003 389.53 312.003 391.5C312.003 393.48 312.803 395.41 314.193 396.8C315.593 398.2 317.523 399 319.503 399C321.473 399 323.403 398.2 324.803 396.8C326.203 395.41 327.003 393.48 327.003 391.5C327.003 389.53 326.203 387.59 324.803 386.2C323.403 384.8 321.473 384 319.503 384Z" fill="#1762A7" fill-opacity="0.5"/>
<path d="M199.5 176H159.5C155.358 176 152 179.358 152 183.5C152 187.642 155.358 191 159.5 191H199.5C212.458 191 223 180.458 223 167.5C223 154.542 212.458 144 199.5 144H175.5C170.813 144 167 140.187 167 135.5C167 130.813 170.813 127 175.5 127H207.5C211.642 127 215 123.642 215 119.5C215 115.358 211.642 112 207.5 112H175.5C162.542 112 152 122.542 152 135.5C152 148.458 162.542 159 175.5 159H199.5C204.187 159 208 162.813 208 167.5C208 172.187 204.187 176 199.5 176Z" fill="#1762A7" fill-opacity="0.5"/>
<path d="M279.5 176H239.5C235.358 176 232 179.358 232 183.5C232 187.642 235.358 191 239.5 191H279.5C292.458 191 303 180.458 303 167.5C303 154.542 292.458 144 279.5 144H255.5C250.813 144 247 140.187 247 135.5C247 130.813 250.813 127 255.5 127H287.5C291.642 127 295 123.642 295 119.5C295 115.358 291.642 112 287.5 112H255.5C242.542 112 232 122.542 232 135.5C232 148.458 242.542 159 255.5 159H279.5C284.187 159 288 162.813 288 167.5C288 172.187 284.187 176 279.5 176Z" fill="#1762A7" fill-opacity="0.5"/>
<path d="M111.5 191C120.335 191 128.844 187.18 134.844 180.52C137.616 177.442 137.369 172.7 134.292 169.928C131.214 167.157 126.473 167.403 123.7 170.48C120.493 174.04 116.161 176 111.501 176H103.501C94.403 176 87.001 168.598 87.001 159.5V143.5C87.001 134.402 94.403 127 103.501 127H111.501C116.161 127 120.494 128.96 123.7 132.52C126.472 135.598 131.214 135.845 134.292 133.072C137.37 130.3 137.617 125.557 134.844 122.48C128.844 115.82 120.336 112 111.5 112H103.5C86.131 112 72 126.131 72 143.5V159.5C72 176.869 86.131 191 103.5 191H111.5Z" fill="#1762A7" fill-opacity="0.5"/>
</svg>
