<svg width="512" height="512" viewBox="0 0 512 512" fill="none" xmlns="http://www.w3.org/2000/svg">
<path d="M410.272 243.145C406.642 238.659 400.061 237.966 395.577 241.597L391.941 244.539C387.456 248.17 386.764 254.75 390.395 259.235C392.461 261.786 395.478 263.11 398.523 263.11C400.832 263.11 403.157 262.348 405.091 260.782L408.726 257.84C413.21 254.209 413.903 247.63 410.272 243.145Z" fill="#6739A7" fill-opacity="0.75"/>
<path d="M380.363 267.357C376.733 262.871 370.152 262.178 365.668 265.808L290.96 325.482C286.475 329.113 285.783 335.692 289.414 340.177C291.478 342.728 294.496 344.052 297.541 344.052C299.85 344.052 302.175 343.29 304.109 341.725L378.817 282.051C383.301 278.421 383.994 271.843 380.363 267.357Z" fill="#6739A7" fill-opacity="0.75"/>
<path d="M449.742 62.685H62.258C27.929 62.685 0 90.614 0 124.942V387.059C0 421.388 27.929 449.316 62.258 449.316H449.742C484.072 449.316 512 421.388 512 387.059V124.942C512 90.614 484.072 62.685 449.742 62.685ZM419.912 83.582L255.859 216.19L91.806 83.582H419.912ZM428.126 428.418H83.592V184.382L249.304 317.872C253.13 320.954 258.588 320.954 262.414 317.872L428.125 184.382V428.418H428.126ZM491.102 387.058C491.102 409.864 472.548 428.417 449.742 428.417H449.025V162.547C449.025 158.524 446.716 154.859 443.086 153.122C439.454 151.384 435.152 151.887 432.021 154.41L255.859 296.318L79.697 154.41C76.563 151.887 72.259 151.384 68.632 153.122C65.002 154.859 62.693 158.524 62.693 162.547V428.417H62.257C39.452 428.418 20.898 409.864 20.898 387.059V124.942C20.898 103.316 37.586 85.524 58.759 83.742L249.291 237.754C251.206 239.303 253.533 240.077 255.859 240.077C258.186 240.077 260.512 239.303 262.427 237.754L452.983 83.721C474.278 85.381 491.102 103.228 491.102 124.941V387.058Z" fill="#6739A7" fill-opacity="0.75"/>
</svg>
