<svg width="511" height="511" viewBox="0 0 511 511" fill="none" xmlns="http://www.w3.org/2000/svg">
<path d="M498.962 102.751C498.944 102.569 498.913 102.392 498.882 102.214C498.871 102.151 498.866 102.086 498.853 102.023C498.811 101.813 498.757 101.607 498.697 101.404C498.688 101.374 498.683 101.343 498.674 101.313C498.611 101.106 498.536 100.904 498.456 100.705C498.445 100.678 498.437 100.65 498.426 100.624C498.348 100.435 498.258 100.252 498.165 100.072C498.146 100.035 498.131 99.997 498.111 99.96C498.021 99.793 497.922 99.633 497.82 99.474C497.789 99.426 497.763 99.376 497.732 99.329C497.631 99.178 497.52 99.034 497.408 98.891C497.369 98.841 497.335 98.789 497.295 98.74C497.139 98.551 496.975 98.368 496.802 98.195L400.804 2.198C400.631 2.025 400.449 1.86 400.259 1.705C400.21 1.665 400.158 1.631 400.108 1.592C399.965 1.48 399.821 1.369 399.67 1.268C399.623 1.236 399.573 1.21 399.525 1.18C399.366 1.079 399.206 0.979 399.039 0.889C399.003 0.869 398.964 0.854 398.927 0.835C398.746 0.742 398.563 0.652 398.375 0.574C398.348 0.563 398.321 0.555 398.294 0.544C398.095 0.464 397.893 0.389 397.686 0.326C397.656 0.317 397.625 0.311 397.595 0.303C397.392 0.244 397.186 0.189 396.976 0.147C396.913 0.134 396.848 0.129 396.785 0.118C396.608 0.087 396.43 0.056 396.248 0.038C396.001 0.013 395.751 0 395.5 0H171.5C149.72 0 132 17.72 132 39.5V80H43.5C26.131 80 12 94.131 12 111.5V191.5C12 208.869 26.131 223 43.5 223H132V471.5C132 493.28 149.72 511 171.5 511H459.5C481.28 511 499 493.28 499 471.5V103.5C499 103.249 498.987 102.999 498.962 102.751ZM403 25.606L473.394 96H427.5C413.991 96 403 85.009 403 71.5V25.606ZM27 191.5V111.5C27 102.402 34.402 95 43.5 95H347.5C356.598 95 364 102.402 364 111.5V191.5C364 200.598 356.598 208 347.5 208H139.519C139.512 208 139.506 207.999 139.5 207.999C139.494 207.999 139.487 208 139.481 208H43.5C34.402 208 27 200.598 27 191.5ZM459.5 496H171.5C157.991 496 147 485.009 147 471.5V223H347.5C364.869 223 379 208.869 379 191.5V111.5C379 94.131 364.869 80 347.5 80H147V39.5C147 25.991 157.991 15 171.5 15H388V71.5C388 93.28 405.72 111 427.5 111H484V471.5C484 485.009 473.009 496 459.5 496Z" fill="#1762A7" fill-opacity="0.5"/>
<path d="M115.5 112C111.358 112 108 115.358 108 119.5V152H67V119.5C67 115.358 63.642 112 59.5 112C55.358 112 52 115.358 52 119.5V183.5C52 187.642 55.358 191 59.5 191C63.642 191 67 187.642 67 183.5V167H108V183.5C108 187.642 111.358 191 115.5 191C119.642 191 123 187.642 123 183.5V119.5C123 115.358 119.642 112 115.5 112Z" fill="#1762A7" fill-opacity="0.5"/>
<path d="M211.5 191C215.642 191 219 187.642 219 183.5V146.577L229.069 163.359C230.424 165.618 232.866 167 235.5 167H243.5C246.134 167 248.576 165.618 249.931 163.359L260 146.577V183.5C260 187.642 263.358 191 267.5 191C271.642 191 275 187.642 275 183.5V119.5C275 116.129 272.751 113.172 269.502 112.272C266.253 111.372 262.804 112.75 261.069 115.641L239.5 151.589L217.931 115.641C216.197 112.75 212.745 111.374 209.498 112.272C206.249 113.172 204 116.129 204 119.5V183.5C204 187.642 207.358 191 211.5 191Z" fill="#1762A7" fill-opacity="0.5"/>
<path d="M139.5 127H156V183.5C156 187.642 159.358 191 163.5 191C167.642 191 171 187.642 171 183.5V127H187.5C191.642 127 195 123.642 195 119.5C195 115.358 191.642 112 187.5 112H139.5C135.358 112 132 115.358 132 119.5C132 123.642 135.358 127 139.5 127Z" fill="#1762A7" fill-opacity="0.5"/>
<path d="M299.5 191H339.5C343.642 191 347 187.642 347 183.5C347 179.358 343.642 176 339.5 176H307V119.5C307 115.358 303.642 112 299.5 112C295.358 112 292 115.358 292 119.5V183.5C292 187.642 295.358 191 299.5 191Z" fill="#1762A7" fill-opacity="0.5"/>
<path d="M341.872 280.385C337.943 279.076 333.695 281.199 332.385 285.129L284.385 429.129C283.075 433.058 285.199 437.306 289.129 438.616C289.916 438.878 290.715 439.003 291.502 439.003C294.642 439.003 297.568 437.015 298.616 433.873L346.616 289.873C347.925 285.942 345.801 281.695 341.872 280.385Z" fill="#1762A7" fill-opacity="0.5"/>
<path d="M272.803 298.197C269.874 295.268 265.125 295.268 262.197 298.197L206.197 354.197C203.268 357.126 203.268 361.875 206.197 364.803L262.197 420.803C263.661 422.267 265.581 423 267.5 423C269.419 423 271.339 422.268 272.803 420.803C275.732 417.874 275.732 413.125 272.803 410.197L222.106 359.5L272.803 308.803C275.732 305.875 275.732 301.125 272.803 298.197Z" fill="#1762A7" fill-opacity="0.5"/>
<path d="M368.803 298.197C365.874 295.268 361.125 295.268 358.197 298.197C355.268 301.126 355.268 305.875 358.197 308.803L408.894 359.5L358.197 410.197C355.268 413.126 355.268 417.875 358.197 420.803C359.661 422.267 361.581 423 363.5 423C365.419 423 367.339 422.268 368.803 420.803L424.803 364.803C427.732 361.874 427.732 357.125 424.803 354.197L368.803 298.197Z" fill="#1762A7" fill-opacity="0.5"/>
</svg>
