<svg width="512" height="512" viewBox="0 0 512 512" fill="none" xmlns="http://www.w3.org/2000/svg">
<path d="M349.657 18.343C348.914 17.6001 348.032 17.0109 347.062 16.6089C346.091 16.2069 345.051 16 344 16H120C105.153 16.0167 90.9189 21.922 80.4204 32.4204C69.922 42.9189 64.0167 57.153 64 72V440C64.0167 454.847 69.922 469.081 80.4204 479.58C90.9189 490.078 105.153 495.983 120 496H392C406.847 495.983 421.081 490.078 431.58 479.58C442.078 469.081 447.983 454.847 448 440V120C448 118.949 447.793 117.909 447.391 116.938C446.989 115.968 446.4 115.086 445.657 114.343L349.657 18.343ZM352 43.313L420.687 112H392C381.395 111.988 371.228 107.77 363.729 100.271C356.23 92.7722 352.012 82.605 352 72V43.313ZM120 32H336V72C336.017 86.847 341.922 101.081 352.42 111.58C362.919 122.078 377.153 127.983 392 128H432V352H80V72C80.0119 61.395 84.23 51.2278 91.7289 43.7289C99.2278 36.23 109.395 32.0119 120 32ZM392 480H120C109.395 479.988 99.2278 475.77 91.7289 468.271C84.23 460.772 80.0119 450.605 80 440V368H432V440C431.988 450.605 427.77 460.772 420.271 468.271C412.772 475.77 402.605 479.988 392 480Z" fill="#1762A7" fill-opacity="0.5"/>
<path d="M240 384C237.878 384 235.843 384.843 234.343 386.343C232.843 387.843 232 389.878 232 392V440C232 442.122 231.157 444.157 229.657 445.657C228.157 447.157 226.122 448 224 448C221.878 448 219.843 447.157 218.343 445.657C216.843 444.157 216 442.122 216 440C216 437.878 215.157 435.843 213.657 434.343C212.157 432.843 210.122 432 208 432C205.878 432 203.843 432.843 202.343 434.343C200.843 435.843 200 437.878 200 440C200 446.365 202.529 452.47 207.029 456.971C211.53 461.471 217.635 464 224 464C230.365 464 236.47 461.471 240.971 456.971C245.471 452.47 248 446.365 248 440V392C248 389.878 247.157 387.843 245.657 386.343C244.157 384.843 242.122 384 240 384Z" fill="#1762A7" fill-opacity="0.5"/>
<path d="M288 400H304C306.122 400 308.157 399.157 309.657 397.657C311.157 396.157 312 394.122 312 392C312 389.878 311.157 387.843 309.657 386.343C308.157 384.843 306.122 384 304 384H288C281.635 384 275.53 386.529 271.029 391.029C266.529 395.53 264 401.635 264 408C264 414.365 266.529 420.47 271.029 424.971C275.53 429.471 281.635 432 288 432C290.122 432 292.157 432.843 293.657 434.343C295.157 435.843 296 437.878 296 440C296 442.122 295.157 444.157 293.657 445.657C292.157 447.157 290.122 448 288 448H272C269.878 448 267.843 448.843 266.343 450.343C264.843 451.843 264 453.878 264 456C264 458.122 264.843 460.157 266.343 461.657C267.843 463.157 269.878 464 272 464H288C294.365 464 300.47 461.471 304.971 456.971C309.471 452.47 312 446.365 312 440C312 433.635 309.471 427.53 304.971 423.029C300.47 418.529 294.365 416 288 416C285.878 416 283.843 415.157 282.343 413.657C280.843 412.157 280 410.122 280 408C280 405.878 280.843 403.843 282.343 402.343C283.843 400.843 285.878 400 288 400Z" fill="#1762A7" fill-opacity="0.5"/>
<path d="M288 224C292.418 224 296 220.418 296 216C296 211.582 292.418 208 288 208C283.582 208 280 211.582 280 216C280 220.418 283.582 224 288 224Z" fill="#1762A7" fill-opacity="0.5"/>
<path d="M224 224C228.418 224 232 220.418 232 216C232 211.582 228.418 208 224 208C219.582 208 216 211.582 216 216C216 220.418 219.582 224 224 224Z" fill="#1762A7" fill-opacity="0.5"/>
<path d="M256 224C260.418 224 264 220.418 264 216C264 211.582 260.418 208 256 208C251.582 208 248 211.582 248 216C248 220.418 251.582 224 256 224Z" fill="#1762A7" fill-opacity="0.5"/>
<path d="M152 224C154.121 224.002 156.154 224.846 157.654 226.346C159.154 227.846 159.998 229.879 160 232V264C160.007 270.363 162.538 276.463 167.038 280.962C171.537 285.462 177.637 287.993 184 288C186.122 288 188.157 287.157 189.657 285.657C191.157 284.157 192 282.122 192 280C192 277.878 191.157 275.843 189.657 274.343C188.157 272.843 186.122 272 184 272C181.879 271.998 179.846 271.154 178.346 269.654C176.846 268.154 176.002 266.121 176 264V232C176.005 226.093 173.823 220.393 169.874 216C173.823 211.607 176.005 205.907 176 200V168C176.002 165.879 176.846 163.846 178.346 162.346C179.846 160.846 181.879 160.002 184 160C186.122 160 188.157 159.157 189.657 157.657C191.157 156.157 192 154.122 192 152C192 149.878 191.157 147.843 189.657 146.343C188.157 144.843 186.122 144 184 144C177.637 144.007 171.537 146.538 167.038 151.038C162.538 155.537 160.007 161.637 160 168V200C159.998 202.121 159.154 204.154 157.654 205.654C156.154 207.154 154.121 207.998 152 208C149.878 208 147.843 208.843 146.343 210.343C144.843 211.843 144 213.878 144 216C144 218.122 144.843 220.157 146.343 221.657C147.843 223.157 149.878 224 152 224Z" fill="#1762A7" fill-opacity="0.5"/>
<path d="M336 264C335.998 266.121 335.154 268.154 333.654 269.654C332.154 271.154 330.121 271.998 328 272C325.878 272 323.843 272.843 322.343 274.343C320.843 275.843 320 277.878 320 280C320 282.122 320.843 284.157 322.343 285.657C323.843 287.157 325.878 288 328 288C334.363 287.993 340.463 285.462 344.962 280.962C349.462 276.463 351.993 270.363 352 264V232C352.002 229.879 352.846 227.846 354.346 226.346C355.846 224.846 357.879 224.002 360 224C362.122 224 364.157 223.157 365.657 221.657C367.157 220.157 368 218.122 368 216C368 213.878 367.157 211.843 365.657 210.343C364.157 208.843 362.122 208 360 208C357.879 207.998 355.846 207.154 354.346 205.654C352.846 204.154 352.002 202.121 352 200V168C351.993 161.637 349.462 155.537 344.962 151.038C340.463 146.538 334.363 144.007 328 144C325.878 144 323.843 144.843 322.343 146.343C320.843 147.843 320 149.878 320 152C320 154.122 320.843 156.157 322.343 157.657C323.843 159.157 325.878 160 328 160C330.121 160.002 332.154 160.846 333.654 162.346C335.154 163.846 335.998 165.879 336 168V200C335.995 205.907 338.177 211.607 342.126 216C338.177 220.393 335.995 226.093 336 232V264Z" fill="#1762A7" fill-opacity="0.5"/>
</svg>
