<svg width="512" height="512" viewBox="0 0 512 512" fill="none" xmlns="http://www.w3.org/2000/svg">
<path d="M382 492H30C24.4844 492 20 487.516 20 482V30C20 24.4844 24.4844 20 30 20H50C55.5234 20 60 15.5234 60 10C60 4.47656 55.5234 0 50 0H30C13.457 0 0 13.457 0 30V482C0 498.543 13.457 512 30 512H382C387.52 512 392 507.523 392 502C392 496.477 387.523 492 382 492Z" fill="white"/>
<path d="M482 0H130C124.477 0 120 4.47656 120 10C120 15.5234 124.477 20 130 20H482C487.516 20 492 24.4844 492 30V482C492 487.516 487.516 492 482 492H462C456.477 492 452 496.477 452 502C452 507.523 456.477 512 462 512H482C498.543 512 512 498.539 512 482V30C512 13.457 498.543 0 482 0Z" fill="white"/>
<path d="M123.25 176.75C152.336 176.75 176 153.086 176 124C176 94.9102 152.336 71.25 123.25 71.25C94.1602 71.25 70.5 94.9141 70.5 124C70.5 153.086 94.1602 176.75 123.25 176.75ZM123.25 91.25C141.309 91.25 156 105.941 156 124C156 142.059 141.309 156.75 123.25 156.75C105.191 156.75 90.5 142.059 90.5 124C90.5 105.941 105.191 91.25 123.25 91.25Z" fill="white"/>
<path d="M344.25 181.75C322.148 181.75 300.816 189.437 283.75 203.023V196.75C283.75 191.227 279.27 186.75 273.75 186.75H204C198.477 186.75 194 191.227 194 196.75V430.75C194 436.273 198.477 440.75 204 440.75H277.5C283.02 440.75 287.5 436.273 287.5 430.75V295.688C287.5 279.008 301.07 265.438 317.75 265.438C334.43 265.438 348 279.008 348 295.688V430.75C348 436.273 352.477 440.75 358 440.75H431.5C437.02 440.75 441.5 436.273 441.5 430.75V279C441.5 225.375 397.871 181.75 344.25 181.75ZM421.5 420.75H368V295.688C368 267.98 345.457 245.438 317.75 245.438C290.039 245.438 267.5 267.98 267.5 295.688V420.75H214V206.75H263.75V227.762C263.75 232.09 266.531 235.926 270.648 237.27C274.758 238.609 279.273 237.152 281.824 233.656C296.41 213.68 319.746 201.75 344.25 201.75C386.844 201.75 421.5 236.402 421.5 279V420.75Z" fill="white"/>
<path d="M86.5 186.75C80.9766 186.75 76.5 191.227 76.5 196.75V430.75C76.5 436.273 80.9766 440.75 86.5 440.75H160C165.52 440.75 170 436.273 170 430.75V196.75C170 191.227 165.52 186.75 160 186.75H86.5ZM150 420.75H96.5V206.75H150V420.75Z" fill="white"/>
<path d="M90.0039 20C95.5234 20 100.004 15.5234 100.004 10C100.004 4.47656 95.5234 0 90.0039 0H89.9961C84.4727 0 80 4.47656 80 10C80 15.5234 84.4805 20 90.0039 20Z" fill="white"/>
<path d="M422.004 492H421.996C416.473 492 412 496.477 412 502C412 507.523 416.48 512 422.004 512C427.527 512 432.004 507.523 432.004 502C432.004 496.477 427.527 492 422.004 492V492Z" fill="white"/>
</svg>
