<svg width="512" height="512" viewBox="0 0 512 512" fill="none" xmlns="http://www.w3.org/2000/svg">
<path d="M426.487 85.775C422.58 81.87 416.25 81.87 412.344 85.775C408.439 89.681 408.439 96.013 412.344 99.918C412.356 99.93 412.392 99.965 412.413 99.986C414.358 101.921 416.892 102.885 419.429 102.885C421.991 102.885 424.554 101.902 426.513 99.943C430.419 96.038 430.392 89.68 426.487 85.775Z" fill="white"/>
<path d="M498.047 304.886C495.487 299.496 494.536 293.561 495.297 287.722C496.832 275.947 497.504 263.93 497.293 252.005C496.472 205.659 482.372 160.801 456.517 122.28C453.44 117.695 447.227 116.472 442.641 119.55C438.057 122.628 436.834 128.841 439.912 133.426C463.616 168.745 476.545 209.871 477.298 252.359C477.49 263.304 476.874 274.332 475.466 285.137C474.208 294.799 475.769 304.595 479.982 313.466C488.081 330.52 492.124 348.816 491.998 367.846C491.55 435.744 435.948 491.438 368.053 491.996C348.856 492.146 330.498 488.093 313.349 479.928C304.819 475.865 295.23 474.4 285.614 475.689C275.841 477 265.878 477.665 256.002 477.665C133.959 477.665 34.67 378.375 34.67 256.332C34.67 246.538 35.323 236.658 36.611 226.969C37.899 217.293 36.403 207.65 32.283 199.085C24.025 181.915 19.895 163.473 20.004 144.272C20.393 76.024 76.236 20.276 144.487 20.001C163.599 19.881 181.969 24.053 199.068 32.273C207.899 36.518 217.677 38.101 227.336 36.848C238.115 35.451 249.11 34.84 260.02 35.036C302.639 35.799 343.87 48.806 379.256 72.653C383.836 75.739 390.05 74.53 393.138 69.949C396.224 65.369 395.013 59.155 390.434 56.068C351.838 30.059 306.865 15.872 260.377 15.04C248.488 14.827 236.511 15.492 224.764 17.015C218.953 17.767 213.065 16.811 207.734 14.248C188.065 4.792 166.968 0 145.015 0C144.813 0 144.609 0.001 144.408 0.001C65.235 0.32 0.455999 64.989 0.00399861 144.156C-0.123001 166.423 4.673 187.819 14.26 207.752C16.684 212.795 17.558 218.527 16.786 224.33C15.382 234.891 14.67 245.658 14.67 256.331C14.67 320.793 39.773 381.397 85.355 426.979C130.936 472.561 191.54 497.664 256.002 497.664C266.764 497.664 277.622 496.939 288.274 495.51C294.036 494.738 299.73 495.593 304.751 497.984C324.288 507.287 345.217 512 366.975 512C367.389 512 367.804 511.998 368.215 511.996C446.975 511.349 511.475 446.743 511.996 367.978C512.142 345.911 507.448 324.684 498.047 304.886Z" fill="white"/>
<path d="M387.665 289.448C365.363 236.799 310.056 224.55 256.57 212.704C248.11 210.83 239.362 208.893 230.847 206.818C222.733 204.86 204.027 198.964 205.592 186.541C207.005 175.329 224.589 159.908 250.068 160.258C274.259 160.692 291.905 175.951 307.472 189.414C320.696 200.85 332.125 210.728 345.665 209.068C360.304 207.281 373.17 196.044 377.681 181.106C383.239 162.706 375.7 142.969 356.984 126.945C322.083 97.17 280.133 85.631 224.947 90.626C199.265 92.932 175.357 102.733 157.628 118.224C137.385 135.912 125.289 160.571 122.649 189.504C119.891 218.71 133.723 244.382 162.649 263.744C191.958 283.364 227.619 290.922 246.269 293.682C276.447 298.142 300.216 308.55 304.07 318.99C305.691 323.376 303.571 328.974 297.798 335.6C275.126 361.432 228.919 345.603 215.506 337.216C212.197 335.168 207.902 330.463 203.355 325.483C191.927 312.966 176.304 295.818 153.668 297.283C138.435 298.326 125.808 307.842 120.716 322.117C113.981 340.999 121.376 362.988 140.509 380.945C167.72 406.425 197.382 422.502 256.133 422.502C262.172 422.502 268.527 422.332 275.207 421.984C275.209 421.984 275.21 421.984 275.212 421.984C318.013 419.743 359.226 396.654 380.206 363.162C395.063 339.444 397.715 313.27 387.665 289.448ZM363.258 352.545C345.903 380.249 310.101 400.128 274.171 402.012C209.272 405.383 181.03 391.489 154.188 366.355C141.044 354.019 135.574 339.994 139.554 328.837C141.967 322.071 147.754 317.735 154.996 317.238C155.447 317.21 155.895 317.195 156.339 317.195C168.708 317.195 178.807 328.258 188.587 338.967C194.098 345.005 199.305 350.708 204.943 354.197C214.165 359.964 232.625 367.109 251.363 369.169C277.371 372.026 298.622 364.982 312.854 348.767C326.514 333.09 325.821 320.155 322.834 312.064C313.218 286.018 268.133 276.696 249.196 273.897C220.295 269.62 192.804 259.862 173.775 247.124C151.01 231.886 140.508 213.133 142.565 191.353C147.532 136.901 189.304 113.908 226.746 110.545C276.892 106.006 313.054 115.755 343.992 142.149C356.578 152.925 361.744 164.707 358.538 175.324C356.317 182.675 350.028 188.388 343.242 189.217C338.452 189.774 328.963 181.558 320.556 174.288C304.227 160.167 281.864 140.827 250.387 140.262C234.861 140.044 219.533 144.464 207.353 152.699C195.089 160.991 187.215 172.416 185.75 184.043C184.82 191.435 184.982 216.324 226.136 226.256C234.833 228.375 243.685 230.336 252.247 232.232C303.016 243.476 350.971 254.097 369.244 297.236C378.778 319.833 371.251 339.786 363.258 352.545Z" fill="white"/>
<path d="M58.602 134.065C58.536 134.063 58.47 134.063 58.404 134.063C52.973 134.063 48.515 138.414 48.41 143.869L48.407 144.215C48.407 149.732 52.874 154.177 58.392 154.185C58.397 154.185 58.402 154.185 58.407 154.185C63.909 154.185 68.378 149.71 68.407 144.209C68.488 138.709 64.108 134.172 58.602 134.065Z" fill="white"/>
<path d="M144.448 48.32C144.434 48.32 144.421 48.32 144.407 48.32C107.256 48.47 73.072 70.456 57.322 104.331C54.993 109.339 57.166 115.286 62.174 117.615C63.538 118.25 64.972 118.55 66.383 118.55C70.154 118.55 73.764 116.407 75.457 112.763C87.955 85.883 115.05 68.438 144.487 68.32C150.01 68.298 154.469 63.802 154.447 58.28C154.425 52.77 149.952 48.32 144.448 48.32Z" fill="white"/>
</svg>
