<svg width="520" height="520" viewBox="0 0 520 520" fill="none" xmlns="http://www.w3.org/2000/svg">
<g filter="url(#filter0_d)">
<path d="M430.487 85.775C426.58 81.87 420.25 81.87 416.344 85.775C412.439 89.681 412.439 96.013 416.344 99.918C416.356 99.93 416.392 99.965 416.413 99.986C418.358 101.921 420.892 102.885 423.429 102.885C425.991 102.885 428.554 101.902 430.513 99.943C434.419 96.038 434.392 89.68 430.487 85.775Z" fill="#6739A7" fill-opacity="0.75"/>
<path d="M502.047 304.886C499.487 299.496 498.536 293.561 499.297 287.722C500.832 275.947 501.504 263.93 501.293 252.005C500.472 205.659 486.372 160.801 460.517 122.28C457.44 117.695 451.227 116.472 446.641 119.55C442.057 122.628 440.834 128.841 443.912 133.426C467.616 168.745 480.545 209.871 481.298 252.359C481.49 263.304 480.874 274.332 479.466 285.137C478.208 294.799 479.769 304.595 483.982 313.466C492.081 330.52 496.124 348.816 495.998 367.846C495.55 435.744 439.948 491.438 372.053 491.996C352.856 492.146 334.498 488.093 317.349 479.928C308.819 475.865 299.23 474.4 289.614 475.689C279.841 477 269.878 477.665 260.002 477.665C137.959 477.665 38.67 378.375 38.67 256.332C38.67 246.538 39.323 236.658 40.611 226.969C41.899 217.293 40.403 207.65 36.283 199.085C28.025 181.915 23.895 163.473 24.004 144.272C24.393 76.024 80.236 20.276 148.487 20.001C167.599 19.881 185.969 24.053 203.068 32.273C211.899 36.518 221.677 38.101 231.336 36.848C242.115 35.451 253.11 34.84 264.02 35.036C306.639 35.799 347.87 48.806 383.256 72.653C387.836 75.739 394.05 74.53 397.138 69.949C400.224 65.369 399.013 59.155 394.434 56.068C355.838 30.059 310.865 15.872 264.377 15.04C252.488 14.827 240.511 15.492 228.764 17.015C222.953 17.767 217.065 16.811 211.734 14.248C192.065 4.792 170.968 0 149.015 0C148.813 0 148.609 0.001 148.408 0.001C69.2351 0.32 4.45604 64.989 4.00404 144.156C3.87704 166.423 8.67305 187.819 18.26 207.752C20.684 212.795 21.558 218.527 20.786 224.33C19.382 234.891 18.67 245.658 18.67 256.331C18.67 320.793 43.773 381.397 89.355 426.979C134.936 472.561 195.54 497.664 260.002 497.664C270.764 497.664 281.622 496.939 292.274 495.51C298.036 494.738 303.73 495.593 308.751 497.984C328.288 507.287 349.217 512 370.975 512C371.389 512 371.804 511.998 372.215 511.996C450.975 511.349 515.475 446.743 515.996 367.978C516.142 345.911 511.448 324.684 502.047 304.886Z" fill="#6739A7" fill-opacity="0.75"/>
<path d="M391.665 289.448C369.363 236.799 314.056 224.55 260.57 212.704C252.11 210.83 243.362 208.893 234.847 206.818C226.733 204.86 208.027 198.964 209.592 186.541C211.005 175.329 228.589 159.908 254.068 160.258C278.259 160.692 295.905 175.951 311.472 189.414C324.696 200.85 336.125 210.728 349.665 209.068C364.304 207.281 377.17 196.044 381.681 181.106C387.239 162.706 379.7 142.969 360.984 126.945C326.083 97.17 284.133 85.631 228.947 90.626C203.265 92.932 179.357 102.733 161.628 118.224C141.385 135.912 129.289 160.571 126.649 189.504C123.891 218.71 137.723 244.382 166.649 263.744C195.958 283.364 231.619 290.922 250.269 293.682C280.447 298.142 304.216 308.55 308.07 318.99C309.691 323.376 307.571 328.974 301.798 335.6C279.126 361.432 232.919 345.603 219.506 337.216C216.197 335.168 211.902 330.463 207.355 325.483C195.927 312.966 180.304 295.818 157.668 297.283C142.435 298.326 129.808 307.842 124.716 322.117C117.981 340.999 125.376 362.988 144.509 380.945C171.72 406.425 201.382 422.502 260.133 422.502C266.172 422.502 272.527 422.332 279.207 421.984C279.209 421.984 279.21 421.984 279.212 421.984C322.013 419.743 363.226 396.654 384.206 363.162C399.063 339.444 401.715 313.27 391.665 289.448ZM367.258 352.545C349.903 380.249 314.101 400.128 278.171 402.012C213.272 405.383 185.03 391.489 158.188 366.355C145.044 354.019 139.574 339.994 143.554 328.837C145.967 322.071 151.754 317.735 158.996 317.238C159.447 317.21 159.895 317.195 160.339 317.195C172.708 317.195 182.807 328.258 192.587 338.967C198.098 345.005 203.305 350.708 208.943 354.197C218.165 359.964 236.625 367.109 255.363 369.169C281.371 372.026 302.622 364.982 316.854 348.767C330.514 333.09 329.821 320.155 326.834 312.064C317.218 286.018 272.133 276.696 253.196 273.897C224.295 269.62 196.804 259.862 177.775 247.124C155.01 231.886 144.508 213.133 146.565 191.353C151.532 136.901 193.304 113.908 230.746 110.545C280.892 106.006 317.054 115.755 347.992 142.149C360.578 152.925 365.744 164.707 362.538 175.324C360.317 182.675 354.028 188.388 347.242 189.217C342.452 189.774 332.963 181.558 324.556 174.288C308.227 160.167 285.864 140.827 254.387 140.262C238.861 140.044 223.533 144.464 211.353 152.699C199.089 160.991 191.215 172.416 189.75 184.043C188.82 191.435 188.982 216.324 230.136 226.256C238.833 228.375 247.685 230.336 256.247 232.232C307.016 243.476 354.971 254.097 373.244 297.236C382.778 319.833 375.251 339.786 367.258 352.545Z" fill="#6739A7" fill-opacity="0.75"/>
<path d="M62.602 134.065C62.536 134.063 62.47 134.063 62.404 134.063C56.973 134.063 52.515 138.414 52.41 143.869L52.407 144.215C52.407 149.732 56.874 154.177 62.392 154.185C62.397 154.185 62.402 154.185 62.407 154.185C67.909 154.185 72.378 149.71 72.407 144.209C72.488 138.709 68.108 134.172 62.602 134.065Z" fill="#6739A7" fill-opacity="0.75"/>
<path d="M148.448 48.32C148.434 48.32 148.421 48.32 148.407 48.32C111.256 48.47 77.072 70.456 61.322 104.331C58.993 109.339 61.166 115.286 66.174 117.615C67.538 118.25 68.972 118.55 70.383 118.55C74.154 118.55 77.764 116.407 79.457 112.763C91.955 85.883 119.05 68.438 148.487 68.32C154.01 68.298 158.469 63.802 158.447 58.28C158.425 52.77 153.952 48.32 148.448 48.32Z" fill="#6739A7" fill-opacity="0.75"/>
</g>
<defs>
<filter id="filter0_d" x="0" y="0" width="520" height="520" filterUnits="userSpaceOnUse" color-interpolation-filters="sRGB">
<feFlood flood-opacity="0" result="BackgroundImageFix"/>
<feColorMatrix in="SourceAlpha" type="matrix" values="0 0 0 0 0 0 0 0 0 0 0 0 0 0 0 0 0 0 127 0"/>
<feOffset dy="4"/>
<feGaussianBlur stdDeviation="2"/>
<feColorMatrix type="matrix" values="0 0 0 0 0 0 0 0 0 0 0 0 0 0 0 0 0 0 0.25 0"/>
<feBlend mode="normal" in2="BackgroundImageFix" result="effect1_dropShadow"/>
<feBlend mode="normal" in="SourceGraphic" in2="effect1_dropShadow" result="shape"/>
</filter>
</defs>
</svg>
