<svg width="512" height="512" viewBox="0 0 512 512" fill="none" xmlns="http://www.w3.org/2000/svg">
<g clip-path="url(#clip0)">
<path d="M315.163 248.376H315.256C342.919 248.376 365.425 225.87 365.425 198.207V52.061C365.425 24.397 342.919 1.892 315.163 1.892C287.5 1.892 264.994 24.398 264.994 52.061V198.207C264.994 225.87 287.5 248.376 315.163 248.376ZM284.994 52.061C284.994 35.426 298.528 21.892 315.256 21.892C331.891 21.892 345.425 35.426 345.425 52.061V198.207C345.425 214.842 331.891 228.376 315.256 228.376H315.163C298.528 228.376 284.994 214.842 284.994 198.207V52.061Z" fill="#6739A7" fill-opacity="0.75"/>
<path d="M196.837 263.624H196.744C169.081 263.624 146.575 286.13 146.575 313.793V459.939C146.575 487.603 169.081 510.108 196.837 510.108C224.5 510.108 247.006 487.602 247.006 459.939V313.793C247.006 286.13 224.5 263.624 196.837 263.624ZM227.006 459.939C227.006 476.574 213.472 490.108 196.744 490.108C180.109 490.108 166.575 476.574 166.575 459.939V313.793C166.575 297.158 180.109 283.624 196.744 283.624H196.837C213.472 283.624 227.006 297.158 227.006 313.793V459.939Z" fill="#6739A7" fill-opacity="0.75"/>
<path d="M196.896 146.348H50.11C22.479 146.348 0 168.827 0 196.484C0 224.115 22.479 246.594 50.11 246.594H196.895C224.526 246.594 247.005 224.115 247.005 196.484V196.458C247.006 168.827 224.526 146.348 196.896 146.348ZM227.006 196.484C227.006 213.087 213.498 226.594 196.896 226.594H50.11C33.507 226.594 20 213.087 20 196.458C20 179.855 33.508 166.348 50.11 166.348H196.895C213.498 166.348 227.005 179.855 227.005 196.458V196.484H227.006Z" fill="#6739A7" fill-opacity="0.75"/>
<path d="M400.527 246.026H443.754C473.049 246.026 496.882 222.193 496.882 192.899V183.13C496.882 153.836 473.049 130.003 443.655 130.003C414.36 130.003 390.527 153.836 390.527 183.13V236.026C390.527 241.549 395.005 246.026 400.527 246.026ZM410.527 183.13C410.527 164.863 425.388 150.003 443.754 150.003C462.021 150.003 476.882 164.864 476.882 183.13V192.899C476.882 211.165 462.021 226.026 443.754 226.026H410.527V183.13Z" fill="#6739A7" fill-opacity="0.75"/>
<path d="M111.473 265.974H68.2459C38.9509 265.974 15.1179 289.807 15.1179 319.101V328.87C15.1179 358.164 38.9509 381.997 68.3449 381.997C97.6399 381.997 121.473 358.164 121.473 328.87V275.974C121.473 270.451 116.995 265.974 111.473 265.974ZM101.473 328.87C101.473 347.137 86.6119 361.997 68.2459 361.997C49.9789 361.997 35.1179 347.136 35.1179 328.87V319.101C35.1179 300.835 49.9789 285.974 68.2459 285.974H101.473V328.87Z" fill="#6739A7" fill-opacity="0.75"/>
<path d="M186.107 127.055H229.334C234.856 127.055 239.334 122.578 239.334 117.055V64.159C239.334 34.865 215.501 11.032 186.107 11.032C156.813 11.032 132.98 34.865 132.98 64.159V73.928C132.98 103.222 156.813 127.055 186.107 127.055ZM152.98 64.159C152.98 45.892 167.84 31.032 186.207 31.032C204.474 31.032 219.334 45.893 219.334 64.159V107.055H186.107C167.84 107.055 152.98 92.194 152.98 73.928V64.159Z" fill="#6739A7" fill-opacity="0.75"/>
<path d="M325.893 384.945H282.666C277.144 384.945 272.666 389.422 272.666 394.945V447.841C272.666 477.135 296.499 500.968 325.893 500.968C355.187 500.968 379.02 477.135 379.02 447.841V438.072C379.02 408.778 355.187 384.945 325.893 384.945ZM359.02 447.841C359.02 466.108 344.16 480.968 325.793 480.968C307.526 480.968 292.666 466.107 292.666 447.841V404.945H325.893C344.16 404.945 359.02 419.806 359.02 438.072V447.841Z" fill="#6739A7" fill-opacity="0.75"/>
<path d="M461.89 265.406H315.104C287.473 265.406 264.994 287.885 264.994 315.542C264.994 343.173 287.473 365.652 315.104 365.652H344.924C350.446 365.652 354.924 361.175 354.924 355.652C354.924 350.129 350.446 345.652 344.924 345.652H315.104C298.501 345.652 284.994 332.145 284.994 315.516C284.994 298.913 298.502 285.406 315.104 285.406H461.89C478.493 285.406 492 298.913 492 315.542C492 332.145 478.492 345.652 461.89 345.652H435.338C429.816 345.652 425.338 350.129 425.338 355.652C425.338 361.175 429.816 365.652 435.338 365.652H461.89C489.521 365.652 512 343.173 512 315.516C512 287.885 489.521 265.406 461.89 265.406Z" fill="#6739A7" fill-opacity="0.75"/>
<path d="M395.859 347.34C392.239 344.928 387.335 345.168 383.966 347.922C380.819 350.495 379.544 354.88 380.805 358.739C382.114 362.745 385.895 365.565 390.114 365.646C394.246 365.725 398.087 363.171 399.61 359.328C401.318 355.024 399.756 349.886 395.859 347.34Z" fill="#6739A7" fill-opacity="0.75"/>
</g>
<defs>
<clipPath id="clip0">
<rect width="512" height="512" fill="white"/>
</clipPath>
</defs>
</svg>
