<svg width="2594" height="3905" viewBox="0 0 2594 3905" fill="none" xmlns="http://www.w3.org/2000/svg">
<path d="M1349.1 3391V3267.95L1508.28 3240.61V2120.49L1349.1 2093.15V1969.12H1905.74C2031.39 1969.12 2140.77 1999.07 2233.87 2058.97C2327.62 2118.86 2400.53 2201.22 2452.62 2306.04C2504.7 2410.86 2530.74 2530.65 2530.74 2665.41V2695.69C2530.74 2827.2 2505.68 2945.69 2455.55 3051.16C2405.42 3155.97 2334.13 3238.98 2241.68 3300.18C2149.88 3360.73 2041.16 3391 1915.51 3391H1349.1ZM1700.66 3240.61H1905.74C1995.59 3240.61 2072.73 3216.2 2137.19 3167.37C2201.64 3117.89 2251.12 3052.13 2285.62 2970.1C2320.78 2887.42 2338.36 2795.95 2338.36 2695.69V2663.46C2338.36 2559.95 2320.78 2467.5 2285.62 2386.12C2251.12 2304.09 2201.64 2239.31 2137.19 2191.78C2072.73 2144.26 1995.59 2120.49 1905.74 2120.49H1700.66V3240.61Z" fill="white"/>
<path d="M72.2656 2096V1972.95L231.445 1945.61V1190.73L72.2656 1163.38V1039.36H404.297L416.992 1177.05C450.846 1126.92 494.466 1088.19 547.852 1060.84C601.237 1033.5 663.086 1019.83 733.398 1019.83C803.711 1019.83 863.932 1036.1 914.062 1068.66C964.844 1101.21 1002.93 1150.04 1028.32 1215.14C1061.52 1155.24 1105.47 1107.72 1160.16 1072.56C1214.84 1037.41 1278.65 1019.83 1351.56 1019.83C1459.64 1019.83 1544.92 1056.94 1607.42 1131.16C1669.92 1204.72 1701.17 1315.73 1701.17 1464.16V1945.61L1860.35 1972.95V2096H1348.63V1972.95L1507.81 1945.61V1462.21C1507.81 1358.04 1489.91 1284.48 1454.1 1241.51C1418.29 1197.89 1365.23 1176.08 1294.92 1176.08C1227.86 1176.08 1173.83 1199.84 1132.81 1247.37C1092.45 1294.24 1069.01 1353.49 1062.5 1425.1V1945.61L1221.68 1972.95V2096H710.938V1972.95L870.117 1945.61V1462.21C870.117 1363.25 851.562 1290.99 814.453 1245.41C777.995 1199.19 724.935 1176.08 655.273 1176.08C596.68 1176.08 548.503 1188.12 510.742 1212.21C472.982 1236.3 444.01 1270.15 423.828 1313.77V1945.61L583.008 1972.95V2096H72.2656Z" fill="white"/>
</svg>
