<svg width="100" height="75" viewBox="0 0 100 75" fill="none" xmlns="http://www.w3.org/2000/svg">
<rect width="100" height="75" rx="5" fill="url(#paint0_linear)"/>
<path d="M44.44 28.68C46.1467 28.68 47.6667 29.04 49 29.76C50.3333 30.4533 51.3867 31.5067 52.16 32.92C52.9333 34.3333 53.32 36.0533 53.32 38.08V51H49.72V38.6C49.72 36.4133 49.1733 34.7467 48.08 33.6C47.0133 32.4267 45.56 31.84 43.72 31.84C41.8267 31.84 40.32 32.4533 39.2 33.68C38.08 34.88 37.52 36.6267 37.52 38.92V51H33.92V38.6C33.92 36.4133 33.3733 34.7467 32.28 33.6C31.2133 32.4267 29.76 31.84 27.92 31.84C26.0267 31.84 24.52 32.4533 23.4 33.68C22.28 34.88 21.72 36.6267 21.72 38.92V51H18.08V29.08H21.72V32.24C22.44 31.0933 23.4 30.2133 24.6 29.6C25.8267 28.9867 27.1733 28.68 28.64 28.68C30.48 28.68 32.1067 29.0933 33.52 29.92C34.9333 30.7467 35.9867 31.96 36.68 33.56C37.2933 32.0133 38.3067 30.8133 39.72 29.96C41.1333 29.1067 42.7067 28.68 44.44 28.68ZM57.9309 39.96C57.9309 37.72 58.3843 35.76 59.2909 34.08C60.1976 32.3733 61.4376 31.0533 63.0109 30.12C64.6109 29.1867 66.3976 28.72 68.3709 28.72C70.0776 28.72 71.6643 29.12 73.1309 29.92C74.5976 30.6933 75.7176 31.72 76.4909 33V21.4H80.1709V51H76.4909V46.88C75.7709 48.1867 74.7043 49.2667 73.2909 50.12C71.8776 50.9467 70.2243 51.36 68.3309 51.36C66.3843 51.36 64.6109 50.88 63.0109 49.92C61.4376 48.96 60.1976 47.6133 59.2909 45.88C58.3843 44.1467 57.9309 42.1733 57.9309 39.96ZM76.4909 40C76.4909 38.3467 76.1576 36.9067 75.4909 35.68C74.8243 34.4533 73.9176 33.52 72.7709 32.88C71.6509 32.2133 70.4109 31.88 69.0509 31.88C67.6909 31.88 66.4509 32.2 65.3309 32.84C64.2109 33.48 63.3176 34.4133 62.6509 35.64C61.9843 36.8667 61.6509 38.3067 61.6509 39.96C61.6509 41.64 61.9843 43.1067 62.6509 44.36C63.3176 45.5867 64.2109 46.5333 65.3309 47.2C66.4509 47.84 67.6909 48.16 69.0509 48.16C70.4109 48.16 71.6509 47.84 72.7709 47.2C73.9176 46.5333 74.8243 45.5867 75.4909 44.36C76.1576 43.1067 76.4909 41.6533 76.4909 40Z" fill="white"/>
<defs>
<linearGradient id="paint0_linear" x1="0" y1="0" x2="100" y2="75" gradientUnits="userSpaceOnUse">
<stop stop-color="#6739A7"/>
</linearGradient>
</defs>
</svg>
