<svg width="75" height="50" viewBox="0 0 75 50" fill="none" xmlns="http://www.w3.org/2000/svg">
<g clip-path="url(#clip0)">
<rect width="75" height="50" rx="5" fill="url(#paint0_linear)"/>
<path d="M33.496 17.912C35.032 17.912 36.4 18.236 37.6 18.884C38.8 19.508 39.748 20.456 40.444 21.728C41.14 23 41.488 24.548 41.488 26.372V38H38.248V26.84C38.248 24.872 37.756 23.372 36.772 22.34C35.812 21.284 34.504 20.756 32.848 20.756C31.144 20.756 29.788 21.308 28.78 22.412C27.772 23.492 27.268 25.064 27.268 27.128V38H24.028V26.84C24.028 24.872 23.536 23.372 22.552 22.34C21.592 21.284 20.284 20.756 18.628 20.756C16.924 20.756 15.568 21.308 14.56 22.412C13.552 23.492 13.048 25.064 13.048 27.128V38H9.772V18.272H13.048V21.116C13.696 20.084 14.56 19.292 15.64 18.74C16.744 18.188 17.956 17.912 19.276 17.912C20.932 17.912 22.396 18.284 23.668 19.028C24.94 19.772 25.888 20.864 26.512 22.304C27.064 20.912 27.976 19.832 29.248 19.064C30.52 18.296 31.936 17.912 33.496 17.912ZM45.6378 28.064C45.6378 26.048 46.0458 24.284 46.8618 22.772C47.6778 21.236 48.7938 20.048 50.2098 19.208C51.6498 18.368 53.2578 17.948 55.0338 17.948C56.5698 17.948 57.9978 18.308 59.3178 19.028C60.6378 19.724 61.6458 20.648 62.3418 21.8V11.36H65.6538V38H62.3418V34.292C61.6938 35.468 60.7338 36.44 59.4618 37.208C58.1898 37.952 56.7018 38.324 54.9978 38.324C53.2458 38.324 51.6498 37.892 50.2098 37.028C48.7938 36.164 47.6778 34.952 46.8618 33.392C46.0458 31.832 45.6378 30.056 45.6378 28.064ZM62.3418 28.1C62.3418 26.612 62.0418 25.316 61.4418 24.212C60.8418 23.108 60.0258 22.268 58.9938 21.692C57.9858 21.092 56.8698 20.792 55.6458 20.792C54.4218 20.792 53.3058 21.08 52.2978 21.656C51.2898 22.232 50.4858 23.072 49.8858 24.176C49.2858 25.28 48.9858 26.576 48.9858 28.064C48.9858 29.576 49.2858 30.896 49.8858 32.024C50.4858 33.128 51.2898 33.98 52.2978 34.58C53.3058 35.156 54.4218 35.444 55.6458 35.444C56.8698 35.444 57.9858 35.156 58.9938 34.58C60.0258 33.98 60.8418 33.128 61.4418 32.024C62.0418 30.896 62.3418 29.588 62.3418 28.1Z" fill="white"/>
</g>
<defs>
<linearGradient id="paint0_linear" x1="0" y1="50" x2="75" y2="1.11759e-06" gradientUnits="userSpaceOnUse">
<stop offset="0.380208" stop-color="#1762A7"/>
<stop offset="1" stop-color="#BC3A80"/>
</linearGradient>
<clipPath id="clip0">
<rect width="75" height="50" rx="5" fill="white"/>
</clipPath>
</defs>
</svg>
